# xmcd
#
# Track frame offsets: 
#        150
#        18044
#        38449
#        53187
#        70555
#        86885
#        103310
#        123627
#        144529
#        163602
#        181288
#        199340
#        216790
#        236613
#        259840
#        280117
#        301840
#        330600
#
# Disc length: 4722 seconds
#
# Revision: 3
# Processed by: cddbd v1.5.2PL0 Copyright (c) Steve Scherf et al.
# Submitted via: ExactAudioCopy v1.0b6
#
DISCID=fe127012
DTITLE=Rasmus Faber - Platina Jazz -Anime Standards Vol.2-
DYEAR=2010
DGENRE=Jazz
TTITLE0=はじめてのチュウ (『キテレツ大百科』より)
TTITLE1=冒険でしょでしょ? (『涼宮ハルヒの憂鬱』より)
TTITLE2=Adesso e Fortuna ～炎と永遠～ (『ロードス島戦記』より)
TTITLE3=プレパレード (『とらドラ!』より)
TTITLE4=Skies Of Love (『銀河英雄伝説』より)
TTITLE5=愛の輪郭 (『ブレンパワード』より)
TTITLE6=人生のメリーゴーランド (『ハウルの動く城』より)
TTITLE7=暁の車 (『機動戦士ガンダムSEED』より)
TTITLE8=約束はいらない (『天空のエスカフローネ』より)
TTITLE9=HELLO,VIFAM (『銀河漂流バイファム』より)
TTITLE10=そばかす (『るろうに剣心-明治剣客浪漫譚-』より)
TTITLE11=For フルーツバスケット (『フルーツバスケット』より)
TTITLE12=yume no tamago (『ラーゼフォン』より)
TTITLE13=Voyage (『ファンタジックチルドレン』より)
TTITLE14=アイモ～鳥のひと (『マクロスFrontier』より)
TTITLE15=魂のルフラン (『新世紀エヴァンゲリオン劇場版 シト新生』より)
TTITLE16=キグルミ惑星 (『はなまる幼稚園』より)
TTITLE17=愛・おぼえていますか (『超時空要塞マクロス 愛・おぼえていますか』より)
EXTD=YEAR: 2010
EXTT0=
EXTT1=
EXTT2=
EXTT3=
EXTT4=
EXTT5=
EXTT6=
EXTT7=
EXTT8=
EXTT9=
EXTT10=
EXTT11=
EXTT12=
EXTT13=
EXTT14=
EXTT15=
EXTT16=
EXTT17=
PLAYORDER=
